<svg width="266" height="40" viewBox="0 0 266 40" fill="none" xmlns="http://www.w3.org/2000/svg">
<path d="M2 27.2C2 33.7 6.9 37.6 16.3 37.6C25.85 37.6 31.15 33.1 31.15 26.5C31.15 12.7 10.2 19.05 10.2 11.75C10.2 9.05 12.85 7.6 16.45 7.6C19.9 7.6 22.5 9.1 22.5 11.95H30C30 5.95 24.8 2 16.45 2C7.85 2 2.55 6.55 2.55 12.55C2.55 26.5 23.3 20.15 23.3 27.4C23.3 30.3 20.65 32 16.3 32C12.25 32 9.5 30.3 9.5 27.2H2Z" fill="black"/>
<path d="M38.3367 37H46.0867V27.05L50.2867 22.6L61.0867 37H69.9867L55.2867 17.3L69.1367 2.6H60.1367L46.0867 17.85V2.6H38.3367V37Z" fill="black"/>
<path d="M75.2254 37H82.9754V2.6H75.2254V37Z" fill="black"/>
<path d="M91.6551 37H99.4051L99.2051 15.7H99.4051L115.955 37H122.705V2.6H114.905L115.105 23.8H114.905L98.5551 2.6H91.6551V37Z" fill="black"/>
<path d="M131.425 37H155.425V30.5H139.175V2.6H131.425V37Z" fill="black"/>
<path d="M159.636 37H167.586L169.986 29.95H183.786L186.186 37H194.386L181.586 2.6H172.436L159.636 37ZM176.836 9.75H177.036L181.736 23.85H172.036L176.836 9.75Z" fill="black"/>
<path d="M199.488 37H217.688C225.438 37 229.538 32.65 229.538 26.8C229.538 22.8 226.988 19.6 222.738 18.85V18.65C226.438 17.65 228.138 14.85 228.138 11.6C228.138 5.95 224.438 2.6 216.688 2.6H199.488V37ZM216.338 22.05C219.838 22.05 221.588 23.75 221.588 26.4C221.588 29.15 219.988 31.05 216.288 31.05H207.238V22.05H216.338ZM215.488 8.55C218.988 8.55 220.338 10.1 220.338 12.3C220.338 14.8 218.838 16.5 215.338 16.5H207.238V8.55H215.488Z" fill="black"/>
<path d="M235.025 27.2C235.025 33.7 239.925 37.6 249.325 37.6C258.875 37.6 264.175 33.1 264.175 26.5C264.175 12.7 243.225 19.05 243.225 11.75C243.225 9.05 245.875 7.6 249.475 7.6C252.925 7.6 255.525 9.1 255.525 11.95H263.025C263.025 5.95 257.825 2 249.475 2C240.875 2 235.575 6.55 235.575 12.55C235.575 26.5 256.325 20.15 256.325 27.4C256.325 30.3 253.675 32 249.325 32C245.275 32 242.525 30.3 242.525 27.2H235.025Z" fill="black"/>
</svg>
